<svg width="32" height="32" viewBox="0 0 32 32" fill="none" xmlns="http://www.w3.org/2000/svg">
<path d="M27.3485 14.9301C27.0954 12.2104 25.8864 9.76218 24.0615 7.9389C22.2382 6.11403 19.7896 4.90462 17.07 4.65152V2H14.9301V4.65152C12.2112 4.90456 9.76262 6.11398 7.93934 7.9389C6.11441 9.76218 4.90544 12.2104 4.65152 14.9301H2V17.07H4.65147C4.90538 19.7897 6.11436 22.2378 7.93928 24.0611C9.76256 25.8856 12.2111 27.095 14.93 27.3485V30H17.0699V27.3485C19.7896 27.095 22.2381 25.8856 24.0615 24.0612C25.8864 22.2379 27.0954 19.7897 27.3484 17.07H30V14.9301L27.3485 14.9301ZM25.1302 17.07C24.8858 19.182 23.9291 21.0716 22.5015 22.5011C21.0715 23.9291 19.1824 24.885 17.0699 25.1299V21.3379H14.93V25.1295C12.8184 24.8851 10.9284 23.9291 9.4993 22.5011C8.07091 21.0716 7.11498 19.182 6.87052 17.07H10.6621V14.9301H6.87052C7.11498 12.8181 8.07091 10.9286 9.4993 9.49897C10.9285 8.07097 12.8184 7.11465 14.93 6.8702V10.6622H17.0699V6.87014C19.1823 7.11459 21.0714 8.07091 22.5015 9.49891C23.9291 10.9285 24.8858 12.818 25.1302 14.9301H21.3379V17.07H25.1302Z" fill="#C8BFB0"/>
<path d="M16 14C14.8945 14 14 14.8958 14 16C14 17.1042 14.8945 18 16 18C17.1042 18 18 17.1041 18 16C17.9999 14.8958 17.1041 14 16 14Z" fill="#C8BFB0"/>
</svg>
