<svg width="32" height="32" viewBox="0 0 32 32" fill="none" xmlns="http://www.w3.org/2000/svg">
<path d="M26.9999 30H21.1943V28.9283H26.9999V30Z" fill="#C8BFB0"/>
<path d="M13.25 30V29.4641L13.25 29H19.0556V30H13.25Z" fill="#C8BFB0"/>
<path d="M5 30V29.4642V28.9283H10.8056V30H5Z" fill="#C8BFB0"/>
<path d="M21.7295 28.6603V28.1914V27.7225H26.4656V28.6603H21.7295Z" fill="#C8BFB0"/>
<path d="M18.5206 28.6603H13.7998V27.7225H18.5206V28.6603Z" fill="#C8BFB0"/>
<path d="M5.53516 28.6603V28.1914V27.7225H10.2713V28.6603H5.53516Z" fill="#C8BFB0"/>
<path d="M26.6178 27.3876H21.622V22.5915L21.5762 18.0767H26.6942L26.6178 27.3876Z" fill="#C8BFB0"/>
<path d="M13.6321 27.3876L13.5862 22.7388L13.5557 18.0767H18.6737L18.6279 22.5915V27.3876H13.6321Z" fill="#C8BFB0"/>
<path d="M13.6777 17.6882C13.6624 17.6212 13.8305 17.2997 14.0749 16.9514L14.4874 16.3351H17.8333L18.2152 17.005C18.4291 17.3801 18.5972 17.7016 18.5972 17.7418C18.5972 17.782 17.4972 17.8088 16.1527 17.8088C14.8083 17.8088 13.693 17.7552 13.6777 17.6882Z" fill="#C8BFB0"/>
<path d="M14.4727 16.0672V15.0624V14.0577H17.8338V16.0672H14.4727Z" fill="#C8BFB0"/>
<path d="M22.1873 15.0223C22.447 14.6605 22.8748 14.339 23.2414 14.1782C23.5928 14.0443 23.9748 13.9237 24.097 13.9237C24.2192 13.9237 24.6317 14.0577 25.0137 14.2184C25.3956 14.3926 25.8539 14.7409 26.0526 14.9955C26.2359 15.25 26.4651 15.7591 26.5567 16.1342C26.6331 16.4959 26.6942 17.0184 26.6178 17.7418L24.1276 17.7686C22.2484 17.7954 21.6373 17.7686 21.6067 17.6347C21.5762 17.5543 21.5914 17.0452 21.6373 16.5361C21.7137 15.8127 21.8359 15.4644 22.1873 15.0223Z" fill="#C8BFB0"/>
<path d="M5.30566 27.0527V20.2872V13.5218H10.4237L10.3779 27.0527H5.30566Z" fill="#C8BFB0"/>
<path d="M5.44336 13.093C5.44336 13.0127 5.61141 12.6777 5.8253 12.3562L6.2378 11.7802H9.58364L9.88919 12.316C10.0572 12.6108 10.1947 12.9457 10.1947 13.0529C10.1947 13.227 9.82808 13.2538 7.82669 13.2538C6.13086 13.2538 5.45864 13.2136 5.44336 13.093Z" fill="#C8BFB0"/>
<path d="M6.22266 11.5123V10.2396V8.96686H9.58377V11.5123H6.22266Z" fill="#C8BFB0"/>
<path d="M14.8699 11.0835C14.9921 10.6548 15.2977 9.9448 15.5421 9.5027C15.8018 9.0606 16.0615 8.69888 16.1227 8.69888C16.1838 8.68549 16.4588 9.074 16.7185 9.52949C16.9935 9.99838 17.3143 10.7352 17.4518 11.1773C17.574 11.6194 17.681 12.383 17.681 13.7897H14.4727L14.5643 12.8117C14.6102 12.2893 14.7477 11.4988 14.8699 11.0835Z" fill="#C8BFB0"/>
<path d="M6.61966 5.08173C6.75716 4.45208 7.06272 3.50089 7.32244 2.97841C7.56688 2.44254 7.82661 2.00044 7.87244 2.00044C7.93355 1.98704 8.13216 2.28177 8.30022 2.63009C8.48355 2.97841 8.74327 3.58128 8.86549 3.94299C9.003 4.31811 9.18633 5.00135 9.278 5.48364C9.35438 5.96593 9.43077 6.87692 9.43077 8.6989L6.29883 8.63191L6.34466 7.42619C6.37522 6.76974 6.49744 5.71139 6.61966 5.08173Z" fill="#C8BFB0"/>
</svg>
