<svg width="32" height="32" viewBox="0 0 32 32" fill="none" xmlns="http://www.w3.org/2000/svg">
<path d="M3 29V21.7778H5.88889V26.1111H10.2222V29H3ZM21.7778 29V26.1111H26.1111V21.7778H29V29H21.7778ZM3 10.2222V3H10.2222V5.88889H5.88889V10.2222H3ZM26.1111 10.2222V5.88889H21.7778V3H29V10.2222H26.1111Z" fill="#C8BFB0"/>
<path d="M10.0903 21.9097C11.7219 23.5413 13.6918 24.3571 16 24.3571C18.3082 24.3571 20.2781 23.5413 21.9097 21.9097C23.5413 20.2781 24.3571 18.3082 24.3571 16C24.3571 13.6918 23.5413 11.7219 21.9097 10.0903C20.2781 8.45867 18.3082 7.64286 16 7.64286C13.6918 7.64286 11.7219 8.45867 10.0903 10.0903C8.45867 11.7219 7.64286 13.6918 7.64286 16C7.64286 18.3082 8.45867 20.2781 10.0903 21.9097Z" fill="#C8BFB0"/>
</svg>
