<svg width="24" height="24" viewBox="0 0 24 24" fill="none" xmlns="http://www.w3.org/2000/svg">
<path d="M1.29624 10.2669C1.47386 10.0863 1.57535 9.94184 1.57535 9.86961V9.86445C1.57535 9.75094 1.5855 9.75094 2.23508 9.75094C2.87959 9.75094 2.89481 9.7561 2.92019 9.86445C2.93541 9.93152 2.95064 10.1947 2.97094 10.9118H4.69638L4.70653 10.5249C4.71161 10.3133 4.74206 10.1173 4.7725 10.0863C4.80295 10.0553 4.82325 9.9728 4.82325 9.75094H5.63523C6.43705 9.75094 6.4472 9.75094 6.47258 9.86445C6.4878 9.93152 6.49795 10.1534 6.49795 10.3546C6.49795 10.561 6.5081 10.7674 6.52332 10.8086C6.54362 10.8705 6.68572 10.886 8.17265 10.886V10.4991C8.17265 10.1482 8.1828 10.1121 8.27414 10.1121C8.35027 10.1121 8.37057 10.0863 8.35534 9.99343C8.34012 9.93152 8.34012 9.84897 8.35534 9.81285C8.37057 9.76642 8.58371 9.75094 9.18762 9.75094C9.6342 9.75094 9.99959 9.76642 10.0047 9.78706C10.0047 9.81285 10.0351 10.0605 10.1265 10.8602L10.8369 10.8705C11.3444 10.8809 11.5677 10.8654 11.6134 10.819C11.654 10.7828 11.6794 10.6332 11.6743 10.432C11.6743 10.1482 11.6844 10.1121 11.7758 10.1121C11.8434 10.1121 11.8773 10.0777 11.8773 10.0089C11.8773 9.95216 11.8874 9.86961 11.9027 9.82833C11.923 9.76642 12.06 9.75094 12.7045 9.75094C13.2729 9.74578 13.4911 9.76126 13.5317 9.81285C13.5621 9.84897 13.6027 10.076 13.623 10.3185C13.6433 10.561 13.689 10.788 13.7194 10.8241C13.7651 10.8705 13.9478 10.8912 14.9476 10.886L15.0135 10.7312C15.0643 10.6074 15.0643 10.5558 15.0135 10.4733C14.9679 10.3959 14.9628 10.3546 15.0034 10.3288C15.0338 10.3082 15.0744 10.2514 15.0897 10.1998C15.11 10.1482 15.1759 10.1121 15.2521 10.1121C15.3434 10.1121 15.3738 10.0915 15.3535 10.0347C15.3383 9.99343 15.3688 9.91088 15.4195 9.85413C15.5007 9.7561 15.5565 9.74578 17.079 9.77674L17.1297 10.2669C17.1602 10.5352 17.1957 10.788 17.2211 10.819C17.2465 10.8654 17.419 10.886 17.7895 10.886C18.2462 10.886 18.3274 10.8705 18.368 10.7932C18.3934 10.7467 18.4238 10.6177 18.434 10.5145C18.4441 10.4062 18.4796 10.2772 18.5152 10.2308C18.5507 10.1792 18.642 10.1379 18.7182 10.1327C18.8044 10.1276 18.8501 10.1018 18.84 10.0553C18.8349 10.0141 18.8806 9.92636 18.9415 9.85929C19.043 9.75094 19.0886 9.74062 19.3119 9.76642C19.454 9.78706 19.6976 9.80253 19.86 9.80253C20.134 9.80253 20.1493 9.80769 20.2 9.95732C20.2254 10.0399 20.266 10.1121 20.2914 10.1121C20.3117 10.1069 20.4284 10.2411 20.7684 10.7054L20.7633 11.4278C20.7532 12.0624 20.738 12.1811 20.6365 12.4081C20.5705 12.5474 20.2964 13.084 20.0275 13.5947C19.7534 14.1055 19.3728 14.7866 19.18 15.1013C18.9871 15.4212 18.7994 15.6843 18.7689 15.6843C18.7334 15.6843 18.6674 15.7205 18.6268 15.7617C18.5659 15.8236 18.2462 15.8443 16.7745 15.8649C15.1607 15.8907 14.9882 15.901 14.8968 15.9836C14.841 16.0352 14.7344 16.1177 14.6583 16.1642C14.5771 16.2106 14.4705 16.2519 14.4147 16.2519C14.3589 16.2519 14.2929 16.2983 14.2625 16.3551C14.232 16.417 14.1051 16.4944 13.9478 16.5408C13.7144 16.613 13.3338 16.6285 11.1922 16.6337C9.82705 16.6337 8.36549 16.6234 7.94428 16.6079C7.29978 16.5821 7.14246 16.5614 6.92931 16.4634C6.79229 16.3963 6.57915 16.2416 6.24421 15.8907H4.48324C3.50887 15.8907 2.69182 15.8701 2.66137 15.8494C2.62585 15.8288 2.52942 15.6637 2.43808 15.478C2.35181 15.2922 2.23508 15.06 2.17926 14.962C2.12344 14.864 1.99149 14.6524 1.88492 14.4977C1.77835 14.3429 1.57028 14.0023 1.42311 13.7495C1.27594 13.4967 1.07802 13.1459 0.986673 12.9756C0.895326 12.8053 0.803979 12.5835 0.778605 12.4855C0.758305 12.3874 0.743081 11.9902 0.753231 11.6083C0.76338 10.9634 0.77353 10.8963 0.890251 10.7312C0.956224 10.6332 1.13892 10.4217 1.29624 10.2669Z" fill="#C8BFB0"/>
<path d="M22.4431 18.1764C22.4127 16.546 22.4177 16.288 22.4837 16.2209C22.5446 16.159 22.6258 16.1487 22.8897 16.1745C23.0724 16.19 23.2246 16.2106 23.2348 16.2209C23.2399 16.2261 23.2449 17.2735 23.25 18.553C23.25 20.2969 23.2297 20.9367 23.184 21.1327C23.1434 21.2772 23.0572 21.4939 22.981 21.6229C22.91 21.7519 22.7273 21.9531 22.5801 22.0718C22.3721 22.2317 22.23 22.2988 22.0016 22.3401C21.8341 22.371 21.3977 22.4071 21.0374 22.4226C20.6771 22.4381 16.9927 22.4587 5.33074 22.5V22.1388C5.33074 21.8189 5.34089 21.7725 5.44746 21.7158C5.52866 21.6693 7.51799 21.6538 13.4505 21.6435C19.0024 21.6384 21.4129 21.6177 21.5855 21.5765C21.7174 21.5455 21.9102 21.4733 22.0168 21.4165C22.1183 21.3649 22.2503 21.2514 22.301 21.174C22.3721 21.0708 22.4076 20.8851 22.438 20.5394C22.4583 20.2711 22.4634 19.2031 22.4431 18.1764Z" fill="#C8BFB0"/>
<path d="M17.25 5.25V7.5H18.75V5.25H21V3.75H18.75V1.5H17.25V3.75H15V5.25H17.25Z" fill="#C8BFB0"/>
</svg>
