<svg width="33" height="32" viewBox="0 0 33 32" fill="none" xmlns="http://www.w3.org/2000/svg">
<path fill-rule="evenodd" clip-rule="evenodd" d="M15.0734 25.3487C16.7891 27.1162 18.9313 28 21.5 28C24.0688 28 26.2109 27.1162 27.9266 25.3487C29.6422 23.5812 30.5 21.3812 30.5 18.7487C30.5 17.5829 30.2375 16.4171 29.7125 15.2513C29.1875 14.0855 28.5312 12.9667 27.7437 11.8949C26.9562 10.8231 26.1031 9.81709 25.1844 8.87692C24.2656 7.93675 23.4125 7.1188 22.625 6.42308C22.475 6.27265 22.3016 6.16453 22.1047 6.09872C21.9078 6.03291 21.7063 6 21.5 6C21.2937 6 21.0922 6.03291 20.8953 6.09872C20.6984 6.16453 20.525 6.27265 20.375 6.42308C19.5875 7.1188 18.7344 7.93675 17.8156 8.87692C16.8969 9.81709 16.0437 10.8231 15.2562 11.8949C14.4688 12.9667 13.8125 14.0855 13.2875 15.2513C12.7625 16.4171 12.5 17.5829 12.5 18.7487C12.5 21.3812 13.3578 23.5812 15.0734 25.3487ZM26.3375 23.7551C25.0625 25.0808 23.45 25.7436 21.5 25.7436C19.55 25.7436 17.9375 25.0808 16.6625 23.7551C15.3875 22.4295 14.75 20.7607 14.75 18.7487C14.75 17.3761 15.3172 15.8248 16.4516 14.0949C17.5859 12.365 19.2688 10.4752 21.5 8.42564C23.7312 10.4752 25.4141 12.365 26.5484 14.0949C27.6828 15.8248 28.25 17.3761 28.25 18.7487C28.25 20.7607 27.6125 22.4295 26.3375 23.7551Z" fill="#C8BFB0"/>
<path fill-rule="evenodd" clip-rule="evenodd" d="M21.5 25.7436C23.45 25.7436 25.0625 25.0808 26.3375 23.7551C27.6125 22.4295 28.25 20.7607 28.25 18.7487C28.25 17.3761 27.6828 15.8248 26.5484 14.0949C25.4141 12.365 23.7312 10.4752 21.5 8.42564C19.2688 10.4752 17.5859 12.365 16.4516 14.0949C15.3172 15.8248 14.75 17.3761 14.75 18.7487C14.75 20.7607 15.3875 22.4295 16.6625 23.7551C17.9375 25.0808 19.55 25.7436 21.5 25.7436ZM22.3859 24.3474C22.2266 24.5073 22.0344 24.5966 21.8094 24.6154C20.6094 24.6906 19.4187 24.3615 18.2375 23.6282C17.0562 22.8949 16.3062 21.6726 15.9875 19.9615C15.9312 19.6983 15.9875 19.4679 16.1562 19.2705C16.325 19.0731 16.5406 18.9744 16.8031 18.9744C17.0094 18.9744 17.1922 19.0402 17.3516 19.1718C17.5109 19.3034 17.6094 19.4726 17.6469 19.6795C17.8719 20.9393 18.4156 21.809 19.2781 22.2885C20.1406 22.7679 20.9562 22.9795 21.725 22.9231C21.9875 22.9043 22.2031 22.9748 22.3719 23.1346C22.5406 23.2944 22.625 23.506 22.625 23.7692C22.625 23.9949 22.5453 24.1876 22.3859 24.3474Z" fill="#C8BFB0"/>
<path d="M10.195 14.6603C9.325 15.5534 8.26 16 7 16C5.74 16 4.675 15.5534 3.805 14.6603C2.935 13.7671 2.5 12.6781 2.5 11.3932C2.5 10.8604 2.56 10.4138 2.68 10.0534C2.8 9.69302 3.025 9.26211 3.355 8.76068L5.965 5.51709C6.235 5.17236 6.58 5 7 5C7.42 5 7.765 5.17236 8.035 5.51709L10.645 8.71367C10.975 9.2151 11.2 9.65384 11.32 10.0299C11.44 10.406 11.5 10.8604 11.5 11.3932C11.5 12.6781 11.065 13.7671 10.195 14.6603Z" fill="#C8BFB0"/>
</svg>
