<svg width="32" height="32" viewBox="0 0 32 32" fill="none" xmlns="http://www.w3.org/2000/svg">
<path d="M23.5274 16.97C23.0123 16.9938 22.5043 17.1002 22.0224 17.2851C22.0224 17.4155 22.0224 17.5459 22.0224 17.6818C22.0209 18.766 21.7321 19.8301 21.1859 20.7643C20.6397 21.6985 19.8559 22.4689 18.9154 22.996C18.99 23.3382 19.1003 23.6715 19.2444 23.9904C19.3769 24.2685 19.5339 24.534 19.7137 24.7837C21.002 24.1056 22.0816 23.0854 22.8356 21.8336C23.5896 20.5818 23.9893 19.146 23.9913 17.6818C23.9913 17.4427 23.9913 17.2091 23.959 16.9754H23.7702L23.5274 16.97Z" fill="#C8BFB0"/>
<path d="M13.0735 22.996C12.1325 22.4694 11.3484 21.699 10.8022 20.7647C10.2559 19.8304 9.96736 18.7661 9.96639 17.6818C9.96639 17.5459 9.96639 17.4155 9.96639 17.2851C9.48452 17.1002 8.97649 16.9938 8.4614 16.97H8.24024H8.05683C8.05683 17.2036 8.01907 17.4373 8.01907 17.6764C8.01962 19.141 8.418 20.5775 9.17107 21.8303C9.92414 23.0831 11.0032 24.1045 12.2913 24.7837C12.4639 24.5343 12.6155 24.2708 12.7444 23.9958C12.8865 23.6743 12.9967 23.3394 13.0735 22.996Z" fill="#C8BFB0"/>
<path d="M12.766 12.5522C13.7317 11.928 14.8551 11.5962 16.0025 11.5962C17.15 11.5962 18.2733 11.928 19.2391 12.5522C19.6354 12.2068 19.9742 11.7995 20.2424 11.346C20.3071 11.2373 20.361 11.1177 20.415 11.0036C19.1087 10.125 17.5732 9.65601 16.0025 9.65601C14.4318 9.65601 12.8963 10.125 11.5901 11.0036C11.644 11.1232 11.6979 11.2373 11.7573 11.346C12.0274 11.7997 12.368 12.207 12.766 12.5522Z" fill="#C8BFB0"/>
<path d="M14.1253 17.6818C14.1263 17.2768 14.257 16.883 14.4981 16.559C14.7391 16.2349 15.0776 15.9979 15.4631 15.8832V14.8399H15.3606C14.0737 14.6847 12.8716 14.1126 11.9353 13.2098C11.5149 12.8197 11.1517 12.3715 10.8564 11.8785C10.8187 11.8133 10.7863 11.7372 10.7486 11.6666C10.3364 10.9029 10.0936 10.0583 10.0369 9.19091C9.98024 8.32355 10.111 7.45413 10.4202 6.64262C10.7295 5.8311 11.2098 5.09682 11.828 4.49042C12.4462 3.88401 13.1877 3.41992 14.0013 3.13016V2.00537C12.0115 2.45976 10.234 3.58146 8.95992 5.18669C7.68587 6.79192 6.99086 8.78547 6.98878 10.8407C6.99256 11.3381 7.03767 11.8343 7.12364 12.3241C6.56091 12.515 6.01874 12.7625 5.50537 13.0631C3.73769 14.0899 2.36875 15.6913 1.62292 17.6046C0.877086 19.5178 0.798619 21.6296 1.40038 23.5937L2.36594 23.0503C2.19868 22.1791 2.22501 21.2814 2.44306 20.4216C2.66111 19.5619 3.06545 18.7615 3.62706 18.0778C4.18866 17.3942 4.89359 16.8443 5.6912 16.4677C6.48882 16.091 7.35934 15.897 8.24024 15.8995C8.33194 15.8995 8.42904 15.8995 8.52074 15.8995C9.47575 15.947 10.4061 16.2213 11.2357 16.7001C12.0654 17.1789 12.7709 17.8486 13.2946 18.6544L13.354 18.7414L14.217 18.236C14.1585 18.0571 14.1276 17.8702 14.1253 17.6818Z" fill="#C8BFB0"/>
<path d="M26.5104 13.0631C25.9967 12.7619 25.4547 12.5125 24.8922 12.3187C24.9766 11.8306 25.0199 11.3362 25.0216 10.8407C25.0198 8.78486 24.325 6.79053 23.051 5.18439C21.777 3.57825 19.9994 2.45549 18.0092 2V3.13022C19.179 3.546 20.192 4.3169 20.9089 5.33674C21.6257 6.35659 22.011 7.57522 22.0117 8.82481C22.0139 9.82129 21.7672 10.8023 21.2942 11.6775C21.2565 11.7482 21.2295 11.8242 21.1864 11.8949C20.8913 12.3864 20.528 12.8328 20.1075 13.2207C19.1718 14.1276 17.9666 14.7002 16.6768 14.8509H16.5473V15.8887C16.9333 16.0044 17.2719 16.2425 17.5129 16.5675C17.7539 16.8924 17.8844 17.2871 17.8851 17.6927C17.8841 17.8772 17.855 18.0605 17.7988 18.2361L18.6619 18.7414L18.7158 18.6545C19.2395 17.8486 19.945 17.179 20.7747 16.7002C21.6044 16.2214 22.5347 15.947 23.4897 15.8996C23.5868 15.8996 23.6839 15.8996 23.7756 15.8996C24.6548 15.8942 25.5241 16.0858 26.3208 16.4603C27.1175 16.8349 27.8216 17.3831 28.3822 18.0653C28.9428 18.7476 29.3459 19.5468 29.5623 20.4052C29.7788 21.2635 29.8032 22.1596 29.6337 23.0287L30.6047 23.572C31.2009 21.6121 31.1208 19.5064 30.3773 17.5982C29.6339 15.6899 28.2709 14.0914 26.5104 13.0631Z" fill="#C8BFB0"/>
<path d="M17.1893 19.1272C16.8589 19.4151 16.4367 19.5736 15.9998 19.5736C15.563 19.5736 15.1408 19.4151 14.8104 19.1272L13.8341 19.6706C14.3044 20.8601 14.3856 22.1698 14.066 23.409C13.9886 23.7621 13.8803 24.1076 13.7424 24.4414C13.6184 24.7101 13.476 24.9697 13.3162 25.2184C12.8525 25.9417 12.2404 26.5565 11.521 27.0214C10.8016 27.4863 9.99171 27.7906 9.14578 27.9136C8.29986 28.0367 7.43757 27.9757 6.617 27.7348C5.79644 27.4939 5.03664 27.0787 4.38878 26.5171L3.42322 27.0605C4.805 28.5652 6.65232 29.5537 8.66363 29.8645C10.6749 30.1754 12.7315 29.7903 14.4975 28.7721C15.0358 28.4642 15.5402 28.1 16.0025 27.6854C17.7584 29.273 20.0639 30.1009 22.4208 29.9901C24.7777 29.8793 26.9966 28.8386 28.598 27.0931L27.6325 26.5497C26.6889 27.354 25.5215 27.8448 24.2902 27.9547C23.059 28.0646 21.8241 27.7884 20.7548 27.1637C19.9344 26.6876 19.2389 26.0206 18.7266 25.2184C18.5648 24.9709 18.4223 24.7111 18.3005 24.4414C18.1566 24.1171 18.0411 23.7807 17.9552 23.4362C17.6329 22.1972 17.7142 20.8867 18.1872 19.6977L17.1893 19.1272Z" fill="#C8BFB0"/>
</svg>
