<svg width="32" height="32" viewBox="0 0 32 32" fill="none" xmlns="http://www.w3.org/2000/svg">
<path d="M9.59468 5.18287C11.4002 4.35183 13.521 3.32018 14.3234 2.83302C15.1259 2.37451 15.7851 2.00198 15.8137 2.00198C15.871 1.97332 16.4729 2.25989 17.1894 2.63242C17.9058 2.9763 18.479 3.43481 18.479 3.60675C18.479 3.80735 16.4156 7.27481 13.8936 11.2868C11.3715 15.2987 9.30809 18.6515 9.30809 18.7375C9.30809 18.8235 10.913 18.8808 12.8905 18.8808C14.868 18.8808 16.4729 18.9668 16.4729 19.0814C16.4729 19.2247 15.6131 21.1733 14.5814 23.4659C13.521 25.7584 12.5466 27.7644 12.4319 27.9076C12.2886 28.0796 11.5722 27.7071 10.5691 26.9047C9.652 26.1882 8.16172 24.6408 7.21597 23.4659C6.27022 22.2909 5.00921 20.285 4.40737 19.0241C3.80553 17.7632 3.06039 15.6426 2.74514 14.2957C2.42989 12.9488 2.1433 10.9715 2 7.93392L4.14944 7.30347C5.32446 6.95959 7.78915 6.01392 9.59468 5.18287Z" fill="#C8BFB0"/>
<path d="M17.304 10.4271C17.9345 8.22048 18.565 5.87063 18.737 5.21153C18.9376 4.52377 19.1955 3.97929 19.3388 3.97929C19.5107 3.97929 21.087 4.63839 22.8352 5.44078C24.6121 6.24317 26.9621 7.13153 30 7.84795L29.828 10.2838C29.7421 11.6306 29.4555 13.4933 29.2262 14.439C28.9683 15.3847 28.4524 16.9321 28.0512 17.8778C27.6786 18.8235 26.9335 20.285 26.4176 21.1447C25.9304 21.9757 24.5834 23.6378 23.4944 24.8414C22.4053 26.0163 20.5138 27.6211 19.3388 28.3948C18.1638 29.1685 16.8741 29.885 16.4729 29.9709C16.0143 30.0856 15.2119 29.8563 14.2375 29.3691C13.435 28.9679 12.7472 28.5381 12.7472 28.4235C12.7472 28.2802 15.4985 25.1566 25.0133 14.7256L20.5998 14.6682C18.1638 14.6109 16.1863 14.5536 16.1863 14.525C16.1863 14.4676 16.6735 12.6336 17.304 10.4271Z" fill="#C8BFB0"/>
</svg>
