<svg width="33" height="32" viewBox="0 0 33 32" fill="none" xmlns="http://www.w3.org/2000/svg">
<path d="M9 31V23.5H1.5V17.5H11.175L13.725 21.325C13.85 21.525 14.025 21.6875 14.25 21.8125C14.475 21.9375 14.7125 22 14.9625 22C15.2875 22 15.5875 21.9 15.8625 21.7C16.1375 21.5 16.325 21.25 16.425 20.95L18.45 14.875L19.725 16.825C19.875 17.025 20.0625 17.1875 20.2875 17.3125C20.5125 17.4375 20.75 17.5 21 17.5H31.5V23.5H24V31H9ZM14.55 17.125L13.2375 15.175C13.1125 14.975 12.9375 14.8125 12.7125 14.6875C12.4875 14.5625 12.25 14.5 12 14.5H1.5V8.5H9V1H24V8.5H31.5V14.5H21.7875L19.2375 10.675C19.1125 10.475 18.9375 10.3125 18.7125 10.1875C18.4875 10.0625 18.25 10 18 10C17.675 10 17.3813 10.1 17.1188 10.3C16.8563 10.5 16.675 10.75 16.575 11.05L14.55 17.125Z" fill="#C8BFB0"/>
</svg>
