<svg width="32" height="32" viewBox="0 0 32 32" fill="none" xmlns="http://www.w3.org/2000/svg">
<path fill-rule="evenodd" clip-rule="evenodd" d="M15.3504 3.62111C15.673 3.55304 17.2862 3.15822 18.93 2.74979C20.5739 2.34137 22.1564 2.00101 22.4329 2.00101C22.8016 1.9874 23.0628 2.10992 23.4623 2.46389C23.7849 2.74979 24 3.07654 24 3.28075C24 3.47135 23.9693 3.71641 23.9232 3.82532C23.8617 4.00231 23.2011 4.02953 19.3141 4.02953C16.3951 4.02953 14.7819 3.97508 14.7819 3.89339C14.7819 3.82532 15.0431 3.70279 15.3504 3.62111ZM9.78877 21.9323C10.0807 19.7676 10.7567 14.9346 11.279 11.2043L12.2162 4.43796H23.8464L23.7695 4.87362C23.7572 4.97244 23.7148 5.27939 23.6545 5.71588L23.6539 5.72073L23.6538 5.72125C23.5646 6.36692 23.4366 7.29397 23.3086 8.24996C23.156 9.31424 22.8347 11.6513 22.4789 14.2397L22.4787 14.2409L22.4762 14.2595C22.2957 15.5722 22.1065 16.9489 21.9259 18.2564C21.3728 22.1501 20.8966 25.5945 20.7737 26.4931H19.0837L19.1605 25.8532C19.1786 25.7088 19.2702 25.01 19.4101 23.9423L19.4112 23.9336C19.6276 22.2827 19.9589 19.7545 20.3128 17.0312C20.4585 15.9095 20.5995 14.8277 20.7292 13.8323L20.7293 13.8315L20.7298 13.8277C21.1194 10.8381 21.4074 8.62774 21.4189 8.45417C21.465 8.1002 21.4189 8.04574 21.0809 8.04574C20.789 8.04574 20.6815 8.12743 20.6508 8.3861C20.62 8.5767 20.0669 12.7018 18.2387 26.425L9.09741 26.4931L9.17423 26.1936C9.20495 26.0166 9.4815 24.097 9.78877 21.9323ZM8.46751 28.3582C8.16024 29.0934 7.96051 29.7605 8.0066 29.8558C8.08342 29.9783 9.83486 30.0192 15.8727 29.9919L23.6313 29.9647C23.6313 29.3657 23.4469 29.2023 22.817 28.8756C22.2639 28.5897 21.8337 28.2221 21.465 27.7456L20.9427 27.0376H9.02059L8.46751 28.3582ZM14.2442 5.78577L13.3224 5.86746L13.1687 6.91576C15.673 6.766 16.4412 6.68432 16.4872 6.64347C16.5487 6.58902 16.6255 6.34396 16.687 6.11252L16.7792 5.66325C15.5347 5.70409 14.7512 5.74493 14.2442 5.78577ZM14.321 8.37248C13.7679 8.42694 13.2302 8.50863 13.1226 8.56308C13.0305 8.61754 12.9383 8.87621 12.9383 9.13488C12.9383 9.58415 12.969 9.61138 13.3531 9.55693C13.5989 9.51608 14.3364 9.44801 15.0124 9.40717C16.1032 9.3391 16.2568 9.29825 16.349 9.02597C16.4104 8.8626 16.4719 8.61754 16.4719 8.49501C16.4719 8.30441 16.349 8.24996 15.8881 8.26357C15.6311 8.27496 15.0947 8.31491 14.6025 8.35158C14.5061 8.35875 14.4115 8.3658 14.321 8.37248ZM13.9676 11.0273L14.0684 11.021C14.6957 10.9823 15.3128 10.9442 15.4733 10.9184C15.582 10.9008 15.7162 10.8833 15.8227 10.8694L15.8228 10.8694C15.8817 10.8617 15.9321 10.8551 15.9649 10.8503C16.0878 10.8503 16.1646 10.9864 16.1646 11.2179C16.1646 11.4221 16.1032 11.6671 16.0417 11.7624C15.9803 11.8577 15.3043 11.9803 14.321 12.0756C13.4299 12.1436 12.6925 12.1845 12.6617 12.1709C12.6464 12.1436 12.6617 11.8986 12.7846 11.109L13.9676 11.0273ZM13.476 13.682C12.5849 13.7637 12.5696 13.7773 12.462 14.2402C12.4006 14.4989 12.3545 14.7303 12.3698 14.7576C12.3852 14.7848 13.1534 14.7576 14.0905 14.6895L15.7805 14.5806L15.9342 13.5595C14.7358 13.6004 13.983 13.6412 13.476 13.682ZM12.3545 16.4594C12.462 16.4185 13.0458 16.3368 13.6296 16.2824C14.2134 16.2279 14.9355 16.1735 15.1967 16.1598C15.6423 16.1462 15.6883 16.1871 15.6269 16.4457C15.5808 16.6227 15.5501 16.8678 15.5501 16.9903C15.5501 17.1945 15.3657 17.249 14.3517 17.3034C13.7065 17.3443 12.9383 17.4124 12.6617 17.4396C12.1855 17.5077 12.1701 17.494 12.1701 17.0312C12.1701 16.7725 12.2623 16.5138 12.3545 16.4594ZM13.5528 18.8963C12.7539 18.9644 12.0472 19.1005 11.9857 19.1822C11.9243 19.2775 11.8628 19.509 11.8628 19.7268C11.8628 20.0399 11.9243 20.0944 12.2776 20.0808C12.5235 20.0808 13.2609 20.0263 13.9369 19.9582C14.6744 19.8902 15.2121 19.7676 15.2735 19.6587C15.335 19.5634 15.3964 19.3184 15.3964 19.1141C15.3964 18.8827 15.3196 18.7466 15.1967 18.7466C15.1045 18.7602 14.3517 18.8282 13.5528 18.8963ZM11.7092 21.9323C11.8475 21.6328 11.9704 21.5919 12.7386 21.5511C13.2302 21.5239 13.9369 21.4966 15.0277 21.4558L15.0124 22.4769L13.2916 22.613C11.6785 22.7355 11.5556 22.7355 11.5556 22.5177C11.5556 22.3816 11.617 22.1229 11.7092 21.9323ZM12.7078 24.1923C12.0318 24.2603 11.4787 24.3284 11.4634 24.3556C11.4524 24.3654 11.4255 24.4944 11.3885 24.6722L11.3884 24.6724C11.3739 24.7423 11.3578 24.8196 11.3405 24.9002L11.2483 25.4039C11.4976 25.383 11.7298 25.3634 11.9466 25.3452L11.9495 25.3449C12.7199 25.28 13.2939 25.2316 13.7372 25.1997C14.7204 25.1316 14.7819 25.118 14.7819 24.7913C14.7819 24.6007 14.8126 24.3556 14.8587 24.2467C14.9202 24.097 14.8126 24.0425 14.4285 24.0561C14.2444 24.0657 13.8008 24.1024 13.3182 24.1422C13.1162 24.1589 12.9073 24.1762 12.7078 24.1923Z" fill="#C8BFB0"/>
</svg>
