<svg width="32" height="32" viewBox="0 0 32 32" fill="none" xmlns="http://www.w3.org/2000/svg">
<path d="M16 25.8C12.6429 23.3733 10.1369 21.0167 8.48214 18.73C6.82738 16.4433 6 14.2033 6 12.01C6 9.09333 6.92857 6.69583 8.78571 4.8175C10.6429 2.93917 13.0476 2 16 2C18.9524 2 21.3571 2.93917 23.2143 4.8175C25.0714 6.69583 26 9.09333 26 12.01C26 14.2033 25.1726 16.4433 23.5179 18.73C21.8631 21.0167 19.3571 23.3733 16 25.8ZM16 14.6C16.7857 14.6 17.4583 14.3258 18.0179 13.7775C18.5774 13.2292 18.8571 12.57 18.8571 11.8C18.8571 11.03 18.5774 10.3708 18.0179 9.8225C17.4583 9.27417 16.7857 9 16 9C15.2143 9 14.5417 9.27417 13.9821 9.8225C13.4226 10.3708 13.1429 11.03 13.1429 11.8C13.1429 12.57 13.4226 13.2292 13.9821 13.7775C14.5417 14.3258 15.2143 14.6 16 14.6ZM6 30V27.2H26V30H6Z" fill="#AFAC99"/>
</svg>
