<svg width="32" height="32" viewBox="0 0 32 32" fill="none" xmlns="http://www.w3.org/2000/svg">
<path d="M15.6404 5.53262C15.6258 5.47898 16.1596 4.65906 16.8177 3.70887C17.4757 2.75868 18.0314 1.99239 18.0534 2.00006C18.0753 2.01538 18.4116 2.19163 18.7919 2.39852C19.1721 2.60542 19.7497 2.87362 20.0714 2.99622C20.3931 3.12649 20.9196 3.3104 21.2413 3.41002C21.563 3.5173 22.1041 3.66289 22.4478 3.74718C22.7914 3.83147 23.3471 3.94641 23.6908 4.00772C24.0344 4.06902 24.7729 4.16097 25.3359 4.20695C26.0233 4.26059 26.6082 4.26825 27.1273 4.21461C27.6099 4.1763 27.9243 4.1763 27.9682 4.21461C28.017 4.2657 28.0096 5.5224 27.9463 7.98472C27.8951 10.0154 27.7854 13.456 27.7123 15.6245C27.5807 19.5019 27.5734 19.5862 27.376 20.2222C27.2736 20.5824 27.0542 21.1494 26.9007 21.4866C26.7471 21.8238 26.4181 22.4291 26.1695 22.8276C25.9209 23.2261 25.4968 23.8314 25.2263 24.1686C24.9557 24.5058 24.3927 25.1264 23.9759 25.5479C23.5519 25.9694 22.9011 26.5594 22.5209 26.8582C22.1407 27.1571 21.6288 27.5402 21.3876 27.7088C21.1463 27.8697 20.6856 28.1686 20.3639 28.3602C20.0422 28.5517 19.4353 28.8736 19.0112 29.0651C18.5871 29.2644 17.8998 29.5402 17.4757 29.6782C17.0516 29.8238 16.6202 29.954 16.5032 29.9847C16.3716 30.0153 16.3058 30 16.3058 29.9387C16.3058 29.8851 16.8981 29.1341 17.6146 28.2682C18.3385 27.4023 18.9381 26.6667 18.9381 26.6207C18.9381 26.5747 18.0607 25.5249 16.9858 24.2835C15.911 23.0345 14.6241 21.5402 14.1269 20.9655C13.637 20.3908 13.2349 19.9004 13.2349 19.8774C13.2349 19.8544 13.5712 19.4176 13.9807 18.8966C14.3974 18.3755 15.1652 17.4023 15.6916 16.728C16.2181 16.0613 17.2491 14.751 17.9875 13.8238C18.7187 12.8966 19.3329 12.0843 19.3549 12.023C19.3768 11.9617 19.3402 11.8085 19.2671 11.6782C19.194 11.5479 18.6164 10.5901 17.9875 9.53261C17.3514 8.4828 16.5691 7.17246 16.2473 6.62074C15.9183 6.06901 15.6478 5.58626 15.6404 5.53262Z" fill="#C8BFB0"/>
<path d="M9.79829 3.67055C10.2589 3.54795 10.8658 3.36404 11.151 3.26442C11.4288 3.16481 11.6774 3.07285 11.6994 3.06519C11.7213 3.05753 11.7579 3.08051 11.7871 3.11117C11.8164 3.14948 11.5458 3.77017 10.5295 5.81614L11.5678 7.10349C12.1381 7.80847 13.2275 9.14947 13.9807 10.092C14.7338 11.0269 15.3553 11.8085 15.3553 11.8315C15.3553 11.8544 14.8069 12.8123 14.1415 13.9617C13.4688 15.1035 12.6207 16.5671 12.2478 17.1954C11.8822 17.8314 11.3192 18.7816 10.9974 19.3257C10.6318 19.9464 10.449 20.3295 10.4929 20.3678C10.5368 20.4061 11.9772 21.6705 13.7101 23.1724C15.4357 24.682 16.9931 26.0383 17.1686 26.1916C17.3734 26.3678 17.4684 26.5058 17.4392 26.5824C17.4099 26.6437 16.9493 27.4023 15.4284 29.8391L14.9678 29.7088C14.7192 29.6398 14.2878 29.5019 14.0026 29.3946C13.7174 29.295 13.1106 29.0192 12.6499 28.7893C12.1893 28.5594 11.4508 28.1533 11.0121 27.8774C10.5807 27.6092 9.87141 27.1111 9.44001 26.774C9.01592 26.4445 8.23356 25.7165 7.7071 25.1648C7.18065 24.6207 6.5299 23.8544 6.25936 23.4789C5.98882 23.1035 5.55742 22.3372 5.2942 21.7931C4.9871 21.1418 4.77505 20.5671 4.68 20.1456C4.57032 19.6399 4.51183 18.8736 4.42409 16.774C4.36559 15.2797 4.27054 12.6744 4.21204 10.9885C4.15355 9.30272 4.08043 7.08051 4 4.16863L4.90667 4.22994C5.49162 4.27591 6.14237 4.26825 6.72732 4.20695C7.23183 4.16097 7.94108 4.06902 8.29936 4.00772C8.65764 3.94641 9.33764 3.79316 9.79829 3.67055Z" fill="#C8BFB0"/>
</svg>
