<svg width="32" height="32" viewBox="0 0 32 32" fill="none" xmlns="http://www.w3.org/2000/svg">
<path d="M28.0488 24.3372C28.2114 23.9911 28.374 22.7012 28.374 21.5057C28.374 19.3664 28.4065 19.3035 30 19.3035L30 25.0001L25.4472 27.672C23.0407 28.9304 20.9594 29.9686 20.8293 29.9686C20.6667 30.0001 20.5691 29.6855 20.5691 29.308C20.5691 28.7102 21.187 28.2698 24.1464 26.7911C26.0976 25.7844 27.8862 24.6832 28.0488 24.3372Z" fill="#C8BFB0"/>
<path d="M2 25.0001V22.3272V19.3035H2.84553C3.62602 19.3035 3.65854 19.3664 3.65854 21.5686C3.65854 23.0473 3.82114 24.0855 4.11382 24.4945C4.37398 24.8405 6.19512 25.9102 8.17886 26.854C11.2033 28.3012 11.7886 28.7102 11.7886 29.2765C11.7886 29.6855 11.6911 30.0001 11.561 30.0001C11.3984 30.0001 9.05691 28.5866 2 25.0001Z" fill="#C8BFB0"/>
<path d="M7.72355 16C7.46339 13.7349 7.23575 11.3439 7.23575 9.39331C10.3711 8.72005 11.6701 8.35005 12.969 7.74005C14.268 7.13004 16.0162 6.40454 16.0162 6.40454C16.0162 6.40454 17.7626 7.11083 19.0309 7.74005C20.2992 8.3378 21.6748 8.79555 24.8943 9.39331L24.6992 12.2248C24.6016 13.7978 24.3414 16.409 23.691 21.0338L20.0162 23.3304C18 24.5574 16.2764 25.5956 16.1788 25.5956C16.0813 25.5956 14.3252 24.5574 12.2764 23.3304C10.2276 22.072 8.47152 20.8135 8.37396 20.5618C8.2764 20.3102 7.98372 18.2652 7.72355 16Z" fill="#C8BFB0"/>
<path d="M27.8862 3.10112C27.5285 2.75506 26.5854 2.62921 23.9838 2.62921H20V2L25.5 2.02035C26.7075 2.00706 28.1895 2 30 2V11.1236H28.374V7.34831C28.374 4.42247 28.2764 3.47865 27.8862 3.10112Z" fill="#C8BFB0"/>
<path d="M2.03253 11.1236V6.5618V2H6.91058H12V2.62921H8.24392C5.51221 2.62921 4.56912 2.75506 4.17887 3.10112C3.75611 3.47865 3.65855 4.32809 3.65855 11.1236H2.03253Z" fill="#C8BFB0"/>
</svg>
