<svg width="32" height="32" viewBox="0 0 32 32" fill="none" xmlns="http://www.w3.org/2000/svg">
<path d="M19.1382 1.17269L19.553 1.19794L19.7512 1.41812L19.9495 1.63829L20.0112 1.58894L20.074 1.53857L20.6523 2.18076L21.2305 2.82294L21.1907 2.86496L21.1521 2.90596L21.9399 3.78093L22.7278 4.6559L22.5399 4.83957C20.7264 6.60537 19.1671 8.10701 18.3211 8.89986C17.7564 9.4291 17.6531 9.53662 17.4957 9.76766C17.2203 10.1693 17.1549 10.5978 17.3087 10.9908C17.3329 11.0563 17.4334 11.2586 17.5283 11.441C17.7422 11.8464 17.9434 12.2467 18.3639 13.1015L18.688 13.7607L18.591 13.9705C18.4222 14.3385 18.2289 14.6952 18.0005 15.0628C17.6368 15.6499 17.2989 16.0704 16.9065 16.4237C16.5096 16.7811 16.2322 16.9561 15.6102 17.2379C15.1605 17.4414 15.0693 17.4944 14.8636 17.6672C14.4914 17.9795 14.3455 18.2437 14.3281 18.6394C14.3031 19.1852 14.5253 19.77 15.2326 21.0248C15.4616 21.4311 15.6477 21.7806 15.9781 22.4197C16.4909 23.4155 16.7197 23.8283 16.958 24.1973C17.1709 24.5267 17.2869 24.6715 17.7087 25.1285C18.0662 25.5188 18.1119 25.5649 18.2451 25.663C18.4391 25.8081 18.7533 26.1481 18.8105 26.2752C18.859 26.3811 18.8741 26.4795 18.8497 26.5431C18.7624 26.7795 17.7591 27.5064 15.7569 28.7838C15.5575 28.9115 15.3872 29.0149 15.3786 29.0144C15.3688 29.0149 15.2029 28.8238 15.0084 28.5919C14.6945 28.2184 14.65 28.1712 14.6312 28.1798C14.6201 28.1856 14.4148 28.3 14.176 28.4339C13.6209 28.7448 13.2051 28.9655 13.0993 29.0068C12.7864 29.1286 12.407 28.8909 11.7534 28.165C11.1122 27.4529 10.8661 27.0889 10.5809 26.4342C10.3123 25.8185 10.1696 25.3697 9.71291 23.7107C9.32338 22.2985 9.20473 21.9921 8.8464 21.4717C8.7029 21.2624 8.42806 20.9617 8.25118 20.822C7.90166 20.5449 7.49535 20.3771 7.07893 20.3409C6.66364 20.3037 6.34193 20.3795 5.85126 20.6282C5.49352 20.8091 5.3669 20.8567 5.26312 20.8525C5.17765 20.8506 5.1692 20.8457 5.11344 20.7838C5.01019 20.6691 5.00975 20.6051 5.11336 20.3914C5.31127 19.9786 5.27765 19.5852 4.99709 19.0696C4.86798 18.8287 4.84707 18.7624 4.88701 18.716C4.90984 18.6892 4.89896 18.6658 4.54135 18.0306C4.33848 17.6692 4.1676 17.3683 4.1646 17.3627C4.15943 17.357 4.12205 17.3699 4.07996 17.3912C3.75088 17.5608 3.35016 17.4876 3.10132 17.2113C2.91443 17.0037 2.84657 16.7243 2.91696 16.4532C2.97426 16.2334 3.14445 16.0324 3.34765 15.9429C3.43492 15.9038 3.46743 15.8787 3.78765 15.5904L4.13268 15.2797L4.01851 15.0191L3.90434 14.7585L4.13548 14.5504L4.36663 14.3423L4.63664 14.3587L4.90665 14.3752L7.24856 12.2665L9.59159 10.1568L9.83336 10.126L10.074 10.0962L10.9602 9.29824L11.8465 8.50026L11.855 8.30568L11.8636 8.1111L15.05 5.24202L18.2365 2.37294L18.1885 2.30607C18.163 2.27091 18.0832 2.16417 18.0126 2.06991L17.8847 1.90062L18.303 1.52397L18.7213 1.14731L19.1382 1.17269ZM9.91142 11.0358C9.94032 11.0928 10.1824 11.5975 10.4492 12.1546C10.7171 12.7129 10.9394 13.173 10.9446 13.1787C10.9497 13.1844 10.9641 13.1777 10.9756 13.1632C10.995 13.1395 10.9507 13.0403 10.4795 12.0567C10.1948 11.4617 9.95072 10.9547 9.93777 10.929C9.91694 10.8855 9.91375 10.8842 9.88894 10.9065C9.86526 10.9279 9.86779 10.9443 9.91142 11.0358ZM9.75356 11.1779C9.78246 11.235 10.0245 11.7396 10.2913 12.2967C10.5592 12.855 10.7816 13.3151 10.7867 13.3208C10.7919 13.3266 10.8063 13.3199 10.8177 13.3054C10.8372 13.2816 10.7928 13.1825 10.3216 12.1989C10.037 11.6038 9.79286 11.0969 9.77991 11.0712C9.75908 11.0276 9.75589 11.0263 9.73108 11.0487C9.70741 11.07 9.70993 11.0864 9.75356 11.1779ZM9.56793 11.262C9.61644 11.3658 10.5948 13.4002 10.6138 13.4371C10.6338 13.473 10.6382 13.4733 10.6587 13.4485C10.6805 13.4228 10.6478 13.3525 10.1638 12.341C9.87913 11.746 9.635 11.239 9.62206 11.2133C9.60123 11.1698 9.59804 11.1685 9.57323 11.1908C9.55293 11.2091 9.55217 11.2264 9.56793 11.262ZM9.41008 11.4042C9.48419 11.5658 10.4628 13.5959 10.471 13.6051C10.4762 13.6108 10.4906 13.6041 10.502 13.5896C10.5215 13.5659 10.4761 13.4656 10.0059 12.4831C9.72015 11.8891 9.47715 11.3811 9.4642 11.3554C9.44337 11.3119 9.44018 11.3106 9.41537 11.3329C9.39508 11.3512 9.39432 11.3685 9.41008 11.4042ZM9.25222 11.5463C9.32437 11.7035 10.3039 13.7369 10.3121 13.7461C10.3183 13.753 10.3327 13.7463 10.3442 13.7318C10.3659 13.706 10.2165 13.3837 9.38562 11.665L9.28345 11.4517L9.25752 11.4751C9.23722 11.4934 9.23646 11.5107 9.25222 11.5463ZM9.09437 11.6884C9.17045 11.8546 10.146 13.879 10.1543 13.8882C10.1605 13.8951 10.1748 13.8884 10.1863 13.8739C10.2058 13.8502 10.1664 13.7611 9.75964 12.9125C9.51261 12.3978 9.26849 11.8909 9.21792 11.7848L9.12559 11.5939L9.09966 11.6172C9.07937 11.6355 9.0786 11.6528 9.09437 11.6884ZM8.93651 11.8306C9.0126 11.9967 9.98816 14.0212 9.99642 14.0304C10.0026 14.0372 10.017 14.0305 10.0285 14.016C10.0502 13.9903 10.0234 13.9334 9.0381 11.8844L8.96774 11.736L8.9418 11.7593C8.92151 11.7776 8.92075 11.7949 8.93651 11.8306ZM8.77865 11.9727C8.8538 12.1355 9.82927 14.1622 9.83856 14.1725C9.84476 14.1794 9.85913 14.1727 9.87059 14.1582C9.8923 14.1324 9.87748 14.1001 8.87734 12.0188L8.80988 11.8781L8.78395 11.9015C8.76365 11.9198 8.76289 11.9371 8.77865 11.9727ZM8.63065 12.1371C8.7088 12.3055 9.67038 14.3032 9.68071 14.3146C9.6869 14.3215 9.70127 14.3148 9.71161 14.3013C9.73445 14.2745 9.77104 14.3537 8.71948 12.1609L8.65203 12.0203L8.62609 12.0436C8.60467 12.0629 8.60607 12.0803 8.63065 12.1371ZM8.47279 12.2792C8.54888 12.4454 9.51252 14.4453 9.52285 14.4568C9.52904 14.4636 9.54342 14.4569 9.55376 14.4435C9.57659 14.4167 9.57152 14.4088 8.56163 12.3031L8.49417 12.1624L8.46824 12.1858C8.44681 12.205 8.44821 12.2225 8.47279 12.2792ZM8.31494 12.4214C8.39402 12.5931 9.35467 14.5874 9.36396 14.5977C9.37015 14.6046 9.38556 14.5991 9.3959 14.5856C9.41874 14.5588 9.41367 14.5509 8.40377 12.4452L8.33631 12.3045L8.31038 12.3279C8.28896 12.3472 8.29036 12.3646 8.31494 12.4214ZM8.19179 12.6361C8.40289 13.0814 9.19681 14.7296 9.2061 14.7399C9.2123 14.7468 9.22771 14.7412 9.23804 14.7277C9.2575 14.704 9.21312 14.6048 8.8004 13.7451C8.54849 13.2182 8.30437 12.7112 8.2598 12.6164L8.17846 12.4467L8.1514 12.471C8.12772 12.4924 8.13241 12.5089 8.19179 12.6361ZM8.03394 12.7782C8.25986 13.2559 9.03792 14.8705 9.04825 14.882C9.05444 14.8889 9.06985 14.8833 9.08019 14.8699C9.09964 14.8461 9.05527 14.747 8.64254 13.8872C8.39063 13.3603 8.14651 12.8534 8.10195 12.7585L8.0206 12.5888L7.99354 12.6132C7.96986 12.6345 7.97455 12.651 8.03394 12.7782ZM7.87608 12.9203C8.099 13.3924 8.88007 15.0127 8.89039 15.0241C8.89659 15.031 8.91199 15.0255 8.92233 15.012C8.94066 14.9893 8.89535 14.8868 8.48469 14.0294C8.23278 13.5024 7.98865 12.9955 7.94409 12.9006L7.86275 12.7309L7.83569 12.7553C7.81201 12.7766 7.81669 12.7932 7.87608 12.9203ZM7.71823 13.0625C7.91928 13.4899 8.72221 15.1548 8.73254 15.1663C8.73873 15.1732 8.75414 15.1676 8.76447 15.1541C8.7828 15.1314 8.76235 15.0792 8.58081 14.7007C8.46766 14.4662 8.22353 13.9593 8.03908 13.573C7.71371 12.8942 7.70263 12.8751 7.67783 12.8974C7.65415 12.9188 7.65874 12.9375 7.71823 13.0625ZM7.55052 13.1823C7.58223 13.2493 7.82513 13.7594 8.09309 14.3155C8.5712 15.3136 8.57815 15.3281 8.60324 15.2993C8.6272 15.2715 8.61735 15.2492 8.42295 14.8429C8.3098 14.6084 8.06568 14.1014 7.88122 13.7152C7.55482 13.0352 7.54478 13.0172 7.51997 13.0396C7.4963 13.0609 7.50098 13.0774 7.55052 13.1823ZM7.87856 14.3426C8.40941 15.4468 8.42029 15.4703 8.44538 15.4415C8.46822 15.4147 8.44861 15.3679 7.93859 14.3072C7.647 13.6976 7.404 13.1897 7.39912 13.1775C7.39124 13.1596 7.38364 13.1603 7.36418 13.184C7.33909 13.2128 7.35091 13.2396 7.87856 14.3426ZM7.71086 14.4624C8.00245 15.072 8.24545 15.5799 8.25033 15.5922C8.25708 15.611 8.26582 15.6094 8.28527 15.5856C8.31149 15.5558 8.3006 15.5324 7.77089 14.4271C7.24108 13.3239 7.22916 13.2993 7.20407 13.3282C7.18124 13.355 7.20187 13.4028 7.71086 14.4624ZM7.56088 14.6224C8.04594 15.635 8.10176 15.7446 8.12403 15.7308C8.13737 15.7229 8.14874 15.7106 8.14903 15.7041C8.15044 15.6966 7.90763 15.1843 7.61097 14.5669C7.08219 13.4649 7.07131 13.4415 7.04734 13.4693C7.02338 13.4971 7.04402 13.545 7.56088 14.6224ZM7.40302 14.7645C7.88714 15.7738 7.94391 15.8867 7.96617 15.8729C7.97952 15.8651 7.99089 15.8528 7.99117 15.8463C7.99296 15.8301 6.93653 13.6251 6.91898 13.6056C6.91072 13.5965 6.89644 13.601 6.88498 13.6155C6.86665 13.6382 6.91994 13.7563 7.40302 14.7645ZM7.24517 14.9066C7.73417 15.9282 7.78492 16.0299 7.80832 16.0151C7.82166 16.0072 7.83303 15.9949 7.83331 15.9884C7.83398 15.9733 6.77868 13.7673 6.76112 13.7478C6.75286 13.7386 6.73859 13.7431 6.72712 13.7576C6.7088 13.7803 6.76199 13.9006 7.24517 14.9066ZM7.08619 15.0498C7.57528 16.0692 7.62707 16.172 7.65046 16.1572C7.6638 16.1493 7.67517 16.137 7.67546 16.1305C7.67574 16.1241 7.43294 15.6118 7.1374 14.9933C6.60665 13.8868 6.59774 13.8679 6.57265 13.8967C6.54868 13.9245 6.56848 13.9669 7.08619 15.0498ZM6.92833 15.1919C7.41742 16.2113 7.46921 16.3142 7.49261 16.2993C7.50595 16.2915 7.51732 16.2792 7.5176 16.2727C7.51827 16.2575 6.46287 14.0537 6.44541 14.032C6.43715 14.0229 6.42287 14.0274 6.41141 14.0419C6.39196 14.0656 6.44534 14.1816 6.92833 15.1919ZM14.3134 13.4532C14.404 13.6603 14.5336 13.8882 14.6752 14.093C14.8259 14.3103 15.1219 14.6231 15.2775 14.728C15.7139 15.0244 16.2613 15.0881 16.9011 14.919C17.1673 14.8495 17.2619 14.8661 17.2104 14.979C17.177 15.0485 17.1185 15.0991 16.9595 15.1924C16.6539 15.37 16.2624 15.4567 15.8353 15.4405C15.3088 15.4203 14.8601 15.2575 14.3112 14.8838C14.0114 14.6823 13.8863 14.5728 13.6621 14.3261C13.5104 14.1576 13.4595 14.1079 13.4493 14.117C13.4087 14.1536 13.2188 14.4346 13.1448 14.5656C12.8051 15.1747 12.8202 15.6428 13.1983 16.1579C13.3413 16.353 13.7262 16.7623 13.8263 16.8258C14.1646 17.0383 14.6493 17.0981 15.1662 16.9898C15.5652 16.9068 15.9977 16.7228 16.3813 16.473C16.563 16.353 16.9918 15.9856 17.1477 15.8141C17.3253 15.6168 17.5305 15.3345 17.6561 15.1113C17.7912 14.8713 17.9404 14.4836 17.9907 14.2493C18.0578 13.9315 18.0502 13.5853 17.9702 13.3376C17.9043 13.1353 17.8656 13.0809 17.4991 12.6716C17.1812 12.3162 17.1594 12.2943 17.0561 12.2295C16.6947 12.0005 16.334 11.9785 15.8646 12.1624C15.4448 12.3265 14.8645 12.7182 14.3747 13.1675L14.2404 13.2905L14.3134 13.4532ZM9.56805 17.7903C9.49608 18.0233 9.66333 18.2589 9.9108 18.2707C10.1345 18.2811 10.3149 18.0688 10.2729 17.843C10.2261 17.6006 9.95684 17.4693 9.73523 17.5837C9.66872 17.6187 9.59316 17.7116 9.56805 17.7903ZM13.7868 25.9064C13.7397 25.9675 13.7183 26.0844 13.738 26.1788C13.7972 26.4577 14.127 26.5677 14.3367 26.3789C14.4517 26.2753 14.4866 26.1485 14.4409 26.0048C14.3708 25.7772 14.1068 25.6723 13.9066 25.7923C13.8744 25.811 13.843 25.8351 13.835 25.8443C13.828 25.8548 13.8062 25.8827 13.7868 25.9064Z" fill="#C8BFB0"/>
</svg>
