<svg width="32" height="32" viewBox="0 0 32 32" fill="none" xmlns="http://www.w3.org/2000/svg">
<path fill-rule="evenodd" clip-rule="evenodd" d="M15.9388 2.00486C16.0253 2.03358 17.9851 2.98153 20.2619 4.13055C22.5676 5.25085 25.4497 6.51478 26.6889 6.91694C27.8994 7.3191 29.8421 7.74 29.982 7.88C29.982 7.88 30.061 7.80743 29.888 10.048C29.7728 11.3407 29.4557 13.3802 29.1675 14.558C28.8505 15.7357 28.13 17.7465 27.4959 19.0104C26.8907 20.2744 25.7379 22.1415 24.9309 23.1756C24.0951 24.2098 22.6252 25.7322 21.6165 26.5653C20.6366 27.3983 19.6855 28.059 19.5414 28.059C19.3973 28.059 18.4462 27.3983 17.4663 26.5653C16.4576 25.7322 15.42 24.7555 15.1606 24.3821C14.8148 23.9512 14.7572 23.6065 14.9301 23.4629C15.0742 23.3193 16.0541 22.8884 17.0916 22.5149C18.475 21.9979 19.1956 21.883 19.8296 22.0553C20.3196 22.1702 20.9824 22.1415 21.3571 21.9979C21.703 21.8543 22.1641 21.3085 22.3658 20.7914C22.7117 19.9871 22.7117 19.8435 22.3082 19.6998C22.0488 19.5849 21.53 19.8147 21.0689 20.1882C20.4637 20.7052 20.0602 20.8201 19.4838 20.7052C18.8785 20.5616 18.0139 20.8489 16.1694 21.7106C14.7572 22.3426 13.5467 23.1182 13.4602 23.3767C13.3449 23.664 13.4602 24.3247 13.662 24.8704C14.0078 25.6748 14.4401 25.9908 16.5152 26.9387C17.8698 27.5419 18.9938 28.1452 19.0515 28.2601C19.0803 28.375 18.4462 28.8633 17.6104 29.3229C16.6881 29.8113 15.8523 30.0698 15.5065 29.9836C15.1895 29.8687 13.9502 29.1793 12.7685 28.4037C11.5869 27.5994 9.62707 25.962 8.44542 24.6981C7.26377 23.4629 5.79391 21.5957 5.18867 20.5903C4.58344 19.5562 3.71882 17.5741 3.25768 16.1379C2.79655 14.7016 2.3066 12.3174 2.1625 10.8236C1.98957 9.32989 1.96075 8.00851 2.04721 7.92234C2.1625 7.80743 2.85419 7.60635 3.63235 7.40528C4.38169 7.23292 6.57207 6.39988 8.50306 5.56684C10.4629 4.73379 12.8838 3.55604 13.9214 2.98153C14.9589 2.40702 15.8523 1.94741 15.9388 2.00486ZM14.1519 8.12342C13.5179 7.97979 13.2873 8.09469 13.0567 8.52557C12.855 8.95646 12.4803 9.10009 11.6733 9.10009C10.8087 9.10009 10.3764 9.30117 9.71353 9.96185C9.2524 10.4502 8.7048 10.7662 8.53188 10.68C8.30131 10.5938 7.98429 10.9098 7.7249 11.3981C7.49433 11.8577 7.29259 12.5759 7.29259 12.978C7.29259 13.3802 7.06202 14.1558 6.80264 14.7303L6.28386 15.7644C9.36768 18.5795 9.51178 18.637 10.607 18.4359C11.2698 18.321 12.1633 17.8901 12.7109 17.4018C13.2008 16.9422 14.0366 16.3677 14.4978 16.1379C14.9589 15.9081 15.8523 15.5921 16.4576 15.4772C17.3798 15.2761 17.524 15.1325 17.6104 14.4143C17.6392 13.926 17.4951 13.3515 17.2646 13.1217C17.034 12.8919 16.7746 12.2886 16.6593 11.829C16.5152 11.1971 16.6017 10.8523 17.0052 10.4789C17.2934 10.1917 17.6104 10.048 17.7545 10.1055C17.8698 10.1917 17.9563 10.68 17.9563 11.1971C17.9563 11.6854 18.1868 12.7195 18.475 13.4377C18.8785 14.558 18.9073 14.9027 18.6191 15.5346C18.3309 16.1091 17.7833 16.4251 16.1982 16.9422C15.0742 17.2869 13.9214 17.8039 13.662 18.0625C13.4026 18.3785 13.2873 18.7519 13.4314 19.0104C13.5755 19.3551 14.3248 19.47 16.7458 19.5275C18.4462 19.5562 19.9737 19.5562 20.1178 19.5275C20.2619 19.4988 20.6078 19.0679 20.8383 18.5795C21.0689 18.0912 21.4148 17.7178 21.5589 17.7178C21.703 17.7178 22.0488 17.8901 22.3082 18.0912C22.5388 18.2923 22.9711 18.7806 23.2305 19.2402C23.4898 19.6711 23.8645 20.0158 24.0086 20.0158C24.1527 20.0158 24.4697 19.5849 24.7003 19.0679C24.9597 18.4359 25.0462 17.5454 24.9309 16.2815C24.8444 15.2474 24.6427 14.3281 24.4697 14.2132C24.2968 14.0983 24.1239 13.4951 24.0951 12.8344C24.0374 12.0014 23.7781 11.4556 23.144 10.8236C22.654 10.364 22.02 9.96185 21.703 9.96185C21.3571 9.96185 21.0689 9.73205 20.9824 9.38734C20.8864 9.00433 20.5982 8.81283 20.1178 8.81283C19.7143 8.81283 19.3397 8.6692 19.2532 8.52557C19.1667 8.35322 18.8209 8.23832 18.475 8.23832C18.1004 8.23832 17.4951 7.97979 17.0916 7.66381C16.6881 7.34782 16.2847 7.08929 16.1982 7.08929C16.1117 7.08929 15.7659 7.34782 15.4777 7.69253C15.0742 8.12342 14.7283 8.23832 14.1519 8.12342Z" fill="#C8BFB0"/>
</svg>
