<svg width="32" height="32" viewBox="0 0 32 32" fill="none" xmlns="http://www.w3.org/2000/svg">
<path d="M8.13572 29.791C6.52866 28.7884 5.17929 27.5557 4.0431 26.0553C2.16898 23.5828 1.12416 20.6243 1.0164 17.485L1 17.0154H6.24988H11.5021V17.121C11.5021 17.1797 11.5138 17.33 11.5279 17.4568C11.6755 18.8257 12.404 20.0326 13.5308 20.7746L13.7511 20.9202L13.6831 21.0399C11.9847 24.0055 8.51991 29.9906 8.49883 29.993C8.48243 29.9953 8.31844 29.9037 8.13572 29.791Z" fill="#C8BFB0"/>
<path d="M22.8804 28.9622C21.9339 27.3162 18.2677 20.9507 18.2583 20.9342C18.2536 20.9249 18.3356 20.8638 18.4387 20.7957C19.446 20.1383 20.1699 19.077 20.4018 17.9194C20.4534 17.6611 20.4979 17.2878 20.4979 17.121V17.0154H25.7501H31L30.9836 17.4803C30.9297 19.0042 30.6697 20.4482 30.1941 21.8406C29.1352 24.9517 27.0948 27.6191 24.3515 29.474C23.951 29.7441 23.5386 30 23.5035 30C23.4894 30 23.2107 29.5327 22.8804 28.9622Z" fill="#C8BFB0"/>
<path d="M15.59 19.9857C14.0087 19.765 12.8585 18.3092 13.0225 16.7407C13.0974 16.0081 13.3785 15.4141 13.8892 14.8998C14.4023 14.388 14.995 14.1062 15.7235 14.0311C16.5669 13.9418 17.443 14.2494 18.0685 14.8529C19.1672 15.9142 19.3031 17.5954 18.3895 18.8211C17.7452 19.6851 16.6606 20.1359 15.59 19.9857Z" fill="#C8BFB0"/>
<path d="M12.561 11.042C8.34422 3.72317 8.51757 4.02841 8.55271 3.99554C8.60894 3.94388 9.31408 3.57524 9.70998 3.38975C11.3006 2.65012 12.8913 2.22277 14.7139 2.04198C15.2972 1.98562 16.6911 1.98562 17.2861 2.04432C19.0759 2.21573 20.6806 2.64542 22.2549 3.37331C22.5922 3.52828 23.3419 3.9204 23.4286 3.98615L23.4801 4.02606L20.9547 8.41219C19.5655 10.826 18.3872 12.8711 18.338 12.9556L18.2489 13.1106L17.9725 12.9744C17.4946 12.7396 16.9839 12.5917 16.4404 12.533C15.6463 12.4461 14.7631 12.6081 14.0228 12.9744L13.7511 13.1083L12.561 11.042Z" fill="#C8BFB0"/>
</svg>
