<svg width="32" height="32" viewBox="0 0 32 32" fill="none" xmlns="http://www.w3.org/2000/svg">
<path d="M16 30C14.0633 30 12.2433 29.6325 10.54 28.8975C8.83667 28.1625 7.355 27.165 6.095 25.905C4.835 24.645 3.8375 23.1633 3.1025 21.46C2.3675 19.7567 2 17.9367 2 16C2 14.0633 2.3675 12.2433 3.1025 10.54C3.8375 8.83667 4.835 7.355 6.095 6.095C7.355 4.835 8.83667 3.8375 10.54 3.1025C12.2433 2.3675 14.0633 2 16 2H17.4V13.585C17.82 13.8417 18.1583 14.1742 18.415 14.5825C18.6717 14.9908 18.8 15.4633 18.8 16C18.8 16.77 18.5258 17.4292 17.9775 17.9775C17.4292 18.5258 16.77 18.8 16 18.8C15.23 18.8 14.5708 18.5258 14.0225 17.9775C13.4742 17.4292 13.2 16.77 13.2 16C13.2 15.4633 13.3283 14.985 13.585 14.565C13.8417 14.145 14.18 13.8183 14.6 13.585V10.575C13.3867 10.9017 12.3833 11.5608 11.59 12.5525C10.7967 13.5442 10.4 14.6933 10.4 16C10.4 17.54 10.9483 18.8583 12.045 19.955C13.1417 21.0517 14.46 21.6 16 21.6C17.54 21.6 18.8583 21.0517 19.955 19.955C21.0517 18.8583 21.6 17.54 21.6 16C21.6 15.16 21.4308 14.3842 21.0925 13.6725L23.665 12.5525C24.155 13.6142 24.4 14.7633 24.4 16C24.4 18.3333 23.5833 20.3167 21.95 21.95C20.3167 23.5833 18.3333 24.4 16 24.4C13.6667 24.4 11.6833 23.5833 10.05 21.95C8.41667 20.3167 7.6 18.3333 7.6 16C7.6 13.9 8.265 12.0742 9.595 10.5225C10.925 8.97083 12.5933 8.03167 14.6 7.705V4.87C11.8233 5.22 9.49583 6.445 7.6175 8.545C5.73917 10.645 4.8 13.13 4.8 16C4.8 19.1267 5.885 21.775 8.055 23.945C10.225 26.115 12.8733 27.2 16 27.2C19.1267 27.2 21.775 26.115 23.945 23.945C26.115 21.775 27.2 19.1267 27.2 16C27.2 14.39 26.885 12.885 26.255 11.485L28.8275 10.3825C29.6092 12.1208 30 13.9933 30 16C30 17.9367 29.6325 19.7567 28.8975 21.46C28.1625 23.1633 27.165 24.645 25.905 25.905C24.645 27.165 23.1633 28.1625 21.46 28.8975C19.7567 29.6325 17.9367 30 16 30Z" fill="#C8BFB0"/>
</svg>
