<svg width="32" height="32" viewBox="0 0 32 32" fill="none" xmlns="http://www.w3.org/2000/svg">
<path d="M16 27C15.6173 27 15.2459 26.9185 14.8857 26.7556C14.5255 26.5926 14.2104 26.359 13.9403 26.0548L3.60779 14.1259C3.40519 13.8869 3.25325 13.6262 3.15195 13.3437C3.05065 13.0612 3 12.7679 3 12.4637C3 12.2681 3.01688 12.0672 3.05065 11.8607C3.08442 11.6543 3.15758 11.4642 3.27013 11.2904L5.8026 6.43407C6.05022 5.99951 6.38225 5.65185 6.7987 5.39111C7.21515 5.13037 7.68225 5 8.2 5H23.8C24.3177 5 24.7848 5.13037 25.2013 5.39111C25.6177 5.65185 25.9498 5.99951 26.1974 6.43407L28.7299 11.2904C28.8424 11.4642 28.9156 11.6543 28.9494 11.8607C28.9831 12.0672 29 12.2681 29 12.4637C29 12.7679 28.9494 13.0612 28.8481 13.3437C28.7468 13.6262 28.5948 13.8869 28.3922 14.1259L18.0597 26.0548C17.7896 26.359 17.4745 26.5926 17.1143 26.7556C16.7541 26.9185 16.3827 27 16 27ZM12.7922 11.5185H19.2078L17.1818 7.60741H14.8182L12.7922 11.5185ZM14.6494 22.8281V14.1259H7.15325L14.6494 22.8281ZM17.3506 22.8281L24.8468 14.1259H17.3506V22.8281ZM22.213 11.5185H25.7922L23.7662 7.60741H20.187L22.213 11.5185ZM6.20779 11.5185H9.78701L11.813 7.60741H8.23377L6.20779 11.5185Z" fill="#C8BFB0"/>
</svg>
