<svg width="32" height="32" viewBox="0 0 32 32" fill="none" xmlns="http://www.w3.org/2000/svg">
<path d="M22.2367 4.595C22.5069 4.83654 22.7906 5.14001 22.8649 5.27007V5.26388C22.946 5.41871 22.9932 5.62309 22.9932 5.87083C23 6.1681 22.9595 6.30436 22.8041 6.55209C22.7028 6.71931 22.4191 7.02278 22.1827 7.22097C21.9463 7.41916 21.4938 7.74121 21.1763 7.93939C20.8588 8.13758 20.3455 8.42247 20.028 8.56492C19.7106 8.71356 19.1905 8.92413 18.8595 9.03561C18.5353 9.15328 17.9139 9.3267 17.4816 9.42579C17.0426 9.52488 16.3333 9.63636 15.9078 9.67972C15.4012 9.72307 14.0301 9.74165 8.73455 9.71068L8.34279 9.30812V5.88941C8.34279 2.94138 8.3563 2.44592 8.44411 2.32825C8.49814 2.24773 8.63999 2.14245 8.74806 2.0929C8.91692 2.01239 9.44377 2 12.1591 2C14.6852 2 15.5295 2.01858 16.1239 2.09909C16.5427 2.14864 17.1912 2.26012 17.5626 2.34683C17.9341 2.43353 18.5285 2.60075 18.8798 2.72462C19.231 2.84229 19.8119 3.07764 20.1631 3.25105C20.5144 3.42446 21.0209 3.69697 21.2776 3.86419C21.5343 4.02522 21.9733 4.35346 22.2367 4.595Z" fill="#C8BFB0"/>
<path d="M25.1489 14.6468C25.4394 14.9007 25.7433 15.2165 25.8311 15.3528C25.9392 15.5262 25.9865 15.7058 25.9932 15.9721C26 16.257 25.9662 16.4057 25.8379 16.6224C25.7501 16.7773 25.4461 17.0931 25.176 17.3347C24.899 17.5762 24.46 17.8983 24.2033 18.0593C23.9466 18.2141 23.4806 18.4742 23.1631 18.6291C22.8457 18.7839 22.3121 19.0069 21.9811 19.1245C21.6501 19.2422 21.0692 19.4094 20.6977 19.5023C20.3262 19.589 19.7183 19.7005 19.3468 19.7501C18.8335 19.8182 17.8541 19.843 11.8156 19.843L11.3428 19.4218V12.5968L11.8156 12.1632L15.2401 12.1632C17.8879 12.1632 18.8267 12.188 19.3468 12.2561C19.7183 12.3057 20.2722 12.4048 20.5829 12.4729C20.8869 12.541 21.434 12.6959 21.792 12.8197C22.1567 12.9436 22.6971 13.1542 22.9943 13.2904C23.2915 13.4267 23.7778 13.6868 24.075 13.8664C24.3722 14.046 24.8517 14.399 25.1489 14.6468Z" fill="#C8BFB0"/>
<path d="M28.1489 24.7481C28.4056 24.9648 28.7028 25.2745 28.8041 25.4479C28.9527 25.6894 29 25.8381 29 26.1106C29 26.3459 28.9527 26.5565 28.8649 26.7175C28.7906 26.8538 28.5339 27.1387 28.2975 27.3493C28.0611 27.566 27.6288 27.9005 27.3384 28.0925C27.0412 28.2845 26.4873 28.5941 26.0956 28.7799C25.7038 28.9595 25.1094 29.2011 24.7785 29.3125C24.4475 29.424 23.9409 29.5665 23.664 29.6346C23.387 29.7027 22.7791 29.8142 22.3131 29.8761C21.5633 29.9876 21.104 30 18.2063 30C15.4438 30 14.9169 29.9876 14.7481 29.9071C14.64 29.8576 14.4981 29.7523 14.4441 29.6718C14.3563 29.5541 14.3428 29.0586 14.3428 22.6919L14.7345 22.2893L17.9362 22.2707C19.949 22.2584 21.408 22.2769 21.874 22.3203C22.2861 22.3574 22.8737 22.438 23.1912 22.4999C23.5086 22.568 24.0557 22.7043 24.407 22.8096C24.7582 22.921 25.3999 23.1626 25.8254 23.3484C26.2509 23.5404 26.8453 23.8438 27.1425 24.0234C27.4397 24.2092 27.8923 24.5313 28.1489 24.7481Z" fill="#C8BFB0"/>
<path d="M6.30294 2.14245C6.42452 2.21677 6.57312 2.36541 6.6204 2.4645C6.70145 2.62553 6.71496 3.22008 6.68794 9.3267L6.18136 9.74784H4.89801C3.94563 9.74784 3.56738 9.72307 3.42553 9.66114C3.32421 9.61778 3.18913 9.5063 3.12158 9.4134C3.01351 9.26476 3.00675 8.98606 3 2.47069L3.54711 2.00619L4.8102 2.00619C6.00574 2.00619 6.09355 2.01239 6.30294 2.14245Z" fill="#C8BFB0"/>
<path d="M9.37724 12.2623C9.45829 12.3181 9.57312 12.4481 9.62715 12.5596C9.6947 12.7144 9.71496 13.4019 9.72171 15.9907C9.72171 18.5424 9.70145 19.267 9.63391 19.428C9.57987 19.5333 9.45829 19.6757 9.36373 19.7377C9.20162 19.8306 9.00574 19.843 6.4458 19.8368L6.00675 19.4094V12.5348L6.47957 12.1632H7.84397C8.99899 12.1632 9.24215 12.1756 9.37724 12.2623Z" fill="#C8BFB0"/>
<path d="M12.3907 22.4132C12.5056 22.4999 12.6272 22.6299 12.6542 22.7105C12.6879 22.7848 12.715 24.3021 12.715 26.0858C12.7217 28.8295 12.7082 29.3497 12.6204 29.5355C12.5664 29.6532 12.4178 29.808 12.2962 29.8761C12.0935 29.9938 11.9855 30 9.48632 29.969L9.00675 29.5355V26.1478C9.00675 23.0201 9.01351 22.7414 9.12158 22.5928C9.18913 22.4999 9.32421 22.3884 9.42553 22.3451C9.56738 22.2831 9.94563 22.2584 10.898 22.2584C12.1678 22.2584 12.1814 22.2584 12.3907 22.4132Z" fill="#C8BFB0"/>
</svg>
