<svg width="33" height="32" viewBox="0 0 33 32" fill="none" xmlns="http://www.w3.org/2000/svg">
<path d="M2.5 26V23.5H5.8L5.32 23.0625C4.34 22.0417 3.625 20.9323 3.175 19.7344C2.725 18.5365 2.5 17.3125 2.5 16.0625C2.5 13.75 3.165 11.6927 4.495 9.89062C5.825 8.08854 7.56 6.89583 9.7 6.3125V8.9375C8.26 9.47917 7.1 10.401 6.22 11.7031C5.34 13.0052 4.9 14.4583 4.9 16.0625C4.9 17 5.07 17.9115 5.41 18.7969C5.75 19.6823 6.28 20.5 7 21.25L7.3 21.5625V18.5H9.7V26H2.5ZM23.3 25.6875V23.0625C24.74 22.5208 25.9 21.599 26.78 20.2969C27.66 18.9948 28.1 17.5417 28.1 15.9375C28.1 15 27.93 14.0885 27.59 13.2031C27.25 12.3177 26.72 11.5 26 10.75L25.7 10.4375V13.5H23.3V6H30.5V8.5H27.2L27.68 8.9375C28.66 9.95833 29.375 11.0677 29.825 12.2656C30.275 13.4635 30.5 14.6875 30.5 15.9375C30.5 18.25 29.835 20.3073 28.505 22.1094C27.175 23.9115 25.44 25.1042 23.3 25.6875Z" fill="#C8BFB0"/>
<path d="M14.5 26L15.5 16.9091H12.5V6H19.5L17.5 13H20.5L14.5 26Z" fill="#CABFB0"/>
</svg>
