<svg width="32" height="32" viewBox="0 0 32 32" fill="none" xmlns="http://www.w3.org/2000/svg">
<path d="M13.1323 7.03561C13.9405 6.22992 15.0374 4.79117 15.5569 3.81282C16.0765 2.8057 16.6538 2 16.827 2C17.0002 2 17.2022 2.28775 17.2311 2.66182C17.2888 3.00712 17.3466 3.89915 17.3466 4.67607C17.3466 5.91339 17.2022 6.17237 15.7301 7.84131C14.8353 8.81966 13.7096 10.4598 13.2477 11.4957C12.6704 12.7331 12.3241 13.9704 12.2375 15.0926C12.1509 16.3875 12.2375 17.0781 12.6416 17.8262C12.9302 18.3729 13.623 19.0635 14.1714 19.3513C14.8642 19.6966 15.5281 19.8117 16.3363 19.7254C16.9713 19.639 17.7218 19.3225 18.0104 19.0635C18.2991 18.7758 18.53 18.3442 18.5011 18.114C18.5011 17.8838 17.9816 16.5889 17.3177 15.2365C16.3074 13.1647 16.1631 12.5892 16.2786 11.4957C16.394 10.4886 16.6538 9.99943 17.462 9.28006C18.0393 8.76211 18.6743 8.38804 18.8764 8.44559C19.0496 8.50314 19.165 8.73334 19.1362 8.93476C19.0784 9.16496 18.963 9.74046 18.8764 10.2009C18.7321 10.8627 18.8475 11.208 19.3671 11.6396C19.7423 11.9561 20.5506 12.6755 21.1567 13.2222C21.7917 13.769 22.4268 14.6897 22.6 15.2365C22.7731 15.7832 22.8597 17.1068 22.802 18.1715C22.7154 19.7829 22.7443 20.0131 23.0907 19.7541C23.3216 19.5527 23.8123 18.9197 24.1587 18.3442C24.5339 17.7399 25.0535 17.1644 25.2844 17.0493C25.5153 16.9054 25.8328 16.9054 25.9483 17.0205C26.0637 17.1356 25.9772 17.3946 25.7751 17.596C25.4864 17.8838 25.4576 18.5744 25.6019 20.416C25.7751 22.5453 25.7174 23.0345 25.1978 24.1567C24.8514 24.8761 24.1875 25.7393 23.6968 26.1134C23.235 26.4587 22.2824 26.9479 21.6186 27.1781C20.9258 27.437 19.8001 27.7823 19.0784 27.9262C18.3568 28.0989 17.2311 28.6168 16.5672 29.0772C15.8744 29.5376 15.1817 29.9405 14.9796 29.998C14.8064 30.0268 14.6333 29.739 14.6333 29.365C14.6044 28.9909 14.4023 28.588 14.1714 28.4442C13.9405 28.3291 13.0168 28.0125 12.1509 27.7536C11.2849 27.4946 9.92828 26.8615 9.12006 26.3436C8.10979 25.6818 7.41703 24.9336 6.83973 23.8402C6.17584 22.6604 5.97379 21.9123 6.00265 20.7037C6.00265 19.8405 6.14698 18.6319 6.32017 18.0564C6.52222 17.4521 6.75314 16.963 6.89746 16.963C7.01292 16.963 7.27271 17.7687 7.4459 18.747C7.70568 20.0131 7.99433 20.7037 8.45617 21.0778C9.03347 21.5094 9.20665 21.5382 9.69736 21.1929C10.0149 20.9627 10.3035 20.5311 10.3612 20.2433C10.419 19.9268 9.89941 18.8621 9.23552 17.8262C8.54276 16.7903 7.85 15.4667 7.61909 14.8912C7.30157 13.9416 7.30157 13.6539 7.76341 12.5892C8.08092 11.841 8.94687 10.7764 9.98601 9.91311C10.9097 9.13619 12.3241 7.84131 13.1323 7.03561Z" fill="#C8BFB0"/>
</svg>
