<svg width="33" height="32" viewBox="0 0 33 32" fill="none" xmlns="http://www.w3.org/2000/svg">
<path d="M13.9366 32C12.0825 32 10.3401 31.6456 8.70942 30.9367C7.07871 30.2278 5.65462 29.2602 4.43717 28.0338C3.21972 26.8073 2.25916 25.3727 1.5555 23.73C0.851832 22.0872 0.5 20.3432 0.5 18.4979C0.5 16.6301 0.851832 14.8748 1.5555 13.2321C2.25916 11.5893 3.21972 10.1547 4.43717 8.92827C5.65462 7.70183 7.07871 6.73418 8.70942 6.02532C10.3401 5.31646 12.0825 4.96203 13.9366 4.96203C14.16 4.96203 14.3778 4.96765 14.5901 4.9789C14.8023 4.99015 15.0201 5.00703 15.2435 5.02954V7.72996C15.0201 7.70745 14.8023 7.69058 14.5901 7.67932C14.3778 7.66807 14.16 7.66245 13.9366 7.66245C10.9433 7.66245 8.40227 8.71449 6.31361 10.8186C4.22496 12.9226 3.18063 15.4824 3.18063 18.4979C3.18063 21.4909 4.22496 24.0394 6.31361 26.1435C8.40227 28.2475 10.9433 29.2996 13.9366 29.2996C16.9077 29.2996 19.4375 28.2475 21.5262 26.1435C23.6148 24.0394 24.6592 21.4909 24.6592 18.4979H27.3398C27.3398 20.3432 26.988 22.0872 26.2843 23.73C25.5806 25.3727 24.6201 26.8073 23.4026 28.0338C22.1852 29.2602 20.7667 30.2278 19.1471 30.9367C17.5276 31.6456 15.7908 32 13.9366 32ZM18.3262 24.8439L12.5628 19.038V11.7468H15.2435V17.9578L20.2026 22.9536L18.3262 24.8439ZM29.7859 15.7975C29.2721 12.602 27.9318 9.82841 25.7649 7.47679C23.5981 5.12518 20.9845 3.55556 17.9241 2.76793V0C21.744 0.83263 24.9887 2.68917 27.6581 5.56962C30.3276 8.45007 31.9415 11.8594 32.5 15.7975H29.7859ZM24.3241 15.7975C23.8997 14.1097 23.1234 12.6245 21.9953 11.3418C20.8672 10.0591 19.5101 9.09142 17.9241 8.43882V5.56962C20.225 6.28973 22.2019 7.56681 23.855 9.40084C25.508 11.2349 26.5803 13.3671 27.0717 15.7975H24.3241Z" fill="#C8BFB0"/>
</svg>
