<svg width="32" height="32" viewBox="0 0 32 32" fill="none" xmlns="http://www.w3.org/2000/svg">
<path d="M16 8.22222C16.4252 8.22222 16.7815 8.07315 17.0692 7.775C17.3568 7.47685 17.5006 7.10741 17.5006 6.66667C17.5006 6.22593 17.3568 5.85648 17.0692 5.55833C16.7815 5.26019 16.4252 5.11111 16 5.11111C15.5748 5.11111 15.2184 5.26019 14.9308 5.55833C14.6432 5.85648 14.4994 6.22593 14.4994 6.66667C14.4994 7.10741 14.6432 7.47685 14.9308 7.775C15.2184 8.07315 15.5748 8.22222 16 8.22222ZM20.2391 8.22222H22.8651C23.6154 8.22222 24.2657 8.48148 24.8159 9C25.3661 9.51852 25.7037 10.1537 25.8288 10.9056L27.9671 26.4611C28.0921 27.3944 27.8608 28.2176 27.2731 28.9306C26.6854 29.6435 25.9288 30 25.0035 30H6.99654C6.07119 30 5.31465 29.6435 4.72692 28.9306C4.1392 28.2176 3.90786 27.3944 4.03291 26.4611L6.17123 10.9056C6.29628 10.1537 6.63391 9.51852 7.18412 9C7.73433 8.48148 8.38458 8.22222 9.13487 8.22222H11.7609C11.6858 7.96296 11.6233 7.71019 11.5733 7.46389C11.5233 7.21759 11.4983 6.95185 11.4983 6.66667C11.4983 5.37037 11.9359 4.26852 12.8113 3.36111C13.6866 2.4537 14.7495 2 16 2C17.2505 2 18.3134 2.4537 19.1887 3.36111C20.0641 4.26852 20.5017 5.37037 20.5017 6.66667C20.5017 6.95185 20.4767 7.21759 20.4267 7.46389C20.3767 7.71019 20.3142 7.96296 20.2391 8.22222Z" fill="#C8BFB0"/>
</svg>
